<svg width="512" height="512" viewBox="0 0 512 512" fill="none" xmlns="http://www.w3.org/2000/svg">
  <rect width="512" height="512" rx="80" fill="#4F46E5"/>
  <path d="M150 140C150 129.507 158.507 121 169 121H343C353.493 121 362 129.507 362 140V372C362 382.493 353.493 391 343 391H169C158.507 391 150 382.493 150 372V140Z" fill="white"/>
  <path d="M150 140C150 129.507 158.507 121 169 121H256V391H169C158.507 391 150 382.493 150 372V140Z" fill="#E0E7FF"/>
  <rect x="190" y="180" width="132" height="8" rx="4" fill="#4F46E5"/>
  <rect x="190" y="210" width="132" height="8" rx="4" fill="#818CF8"/>
  <rect x="190" y="240" width="100" height="8" rx="4" fill="#818CF8"/>
  <path d="M256 121V391" stroke="#4F46E5" stroke-width="3"/>
</svg>
